<mxfile host="app.diagrams.net" modified="2020-11-25T18:17:27.177Z" agent="5.0 (Windows NT 10.0; Win64; x64) AppleWebKit/537.36 (KHTML, like Gecko) Chrome/87.0.4280.66 Safari/537.36" etag="DPpgbaEta7TpZZoEknyG" version="13.10.3" type="github">
  <diagram id="C5RBs43oDa-KdzZeNtuy" name="Page-1">
    <mxGraphModel dx="868" dy="450" grid="1" gridSize="10" guides="1" tooltips="1" connect="1" arrows="1" fold="1" page="1" pageScale="1" pageWidth="827" pageHeight="1169" math="0" shadow="0">
      <root>
        <mxCell id="WIyWlLk6GJQsqaUBKTNV-0" />
        <mxCell id="WIyWlLk6GJQsqaUBKTNV-1" parent="WIyWlLk6GJQsqaUBKTNV-0" />
        <mxCell id="Eu5xsYyu4Eo9ST4cZspL-4" style="edgeStyle=orthogonalEdgeStyle;rounded=0;orthogonalLoop=1;jettySize=auto;html=1;exitX=0.5;exitY=1;exitDx=0;exitDy=0;entryX=0.5;entryY=0;entryDx=0;entryDy=0;fontSize=17;" parent="WIyWlLk6GJQsqaUBKTNV-1" source="Eu5xsYyu4Eo9ST4cZspL-0" target="Eu5xsYyu4Eo9ST4cZspL-3" edge="1">
          <mxGeometry relative="1" as="geometry" />
        </mxCell>
        <mxCell id="Eu5xsYyu4Eo9ST4cZspL-0" value="" style="rounded=1;whiteSpace=wrap;html=1;" parent="WIyWlLk6GJQsqaUBKTNV-1" vertex="1">
          <mxGeometry x="354" y="40" width="120" height="60" as="geometry" />
        </mxCell>
        <mxCell id="Eu5xsYyu4Eo9ST4cZspL-2" value="Start" style="text;html=1;resizable=0;autosize=1;align=center;verticalAlign=middle;points=[];fillColor=none;strokeColor=none;rounded=0;fontSize=17;" parent="WIyWlLk6GJQsqaUBKTNV-1" vertex="1">
          <mxGeometry x="389" y="55" width="50" height="30" as="geometry" />
        </mxCell>
        <mxCell id="Eu5xsYyu4Eo9ST4cZspL-7" style="edgeStyle=orthogonalEdgeStyle;rounded=0;orthogonalLoop=1;jettySize=auto;html=1;exitX=0.5;exitY=1;exitDx=0;exitDy=0;entryX=0.5;entryY=0;entryDx=0;entryDy=0;fontSize=17;" parent="WIyWlLk6GJQsqaUBKTNV-1" source="Eu5xsYyu4Eo9ST4cZspL-3" target="Eu5xsYyu4Eo9ST4cZspL-6" edge="1">
          <mxGeometry relative="1" as="geometry" />
        </mxCell>
        <mxCell id="Eu5xsYyu4Eo9ST4cZspL-3" value="&lt;font style=&quot;font-size: 14px&quot;&gt;Utmatning&lt;/font&gt;:&lt;br&gt;&lt;font style=&quot;font-size: 14px&quot;&gt;Ange ett heltal mellan 1 och 100&lt;/font&gt;" style="shape=parallelogram;perimeter=parallelogramPerimeter;whiteSpace=wrap;html=1;fixedSize=1;fontSize=17;" parent="WIyWlLk6GJQsqaUBKTNV-1" vertex="1">
          <mxGeometry x="316" y="140" width="196" height="60" as="geometry" />
        </mxCell>
        <mxCell id="Eu5xsYyu4Eo9ST4cZspL-6" value="" style="shape=parallelogram;perimeter=parallelogramPerimeter;whiteSpace=wrap;html=1;fixedSize=1;fontSize=17;" parent="WIyWlLk6GJQsqaUBKTNV-1" vertex="1">
          <mxGeometry x="322" y="240" width="184" height="60" as="geometry" />
        </mxCell>
        <mxCell id="Eu5xsYyu4Eo9ST4cZspL-12" value="" style="edgeStyle=orthogonalEdgeStyle;rounded=0;orthogonalLoop=1;jettySize=auto;html=1;fontSize=14;entryX=0.5;entryY=0;entryDx=0;entryDy=0;" parent="WIyWlLk6GJQsqaUBKTNV-1" source="Eu5xsYyu4Eo9ST4cZspL-9" target="Eu5xsYyu4Eo9ST4cZspL-10" edge="1">
          <mxGeometry relative="1" as="geometry" />
        </mxCell>
        <mxCell id="Eu5xsYyu4Eo9ST4cZspL-9" value="Inmatning&lt;br&gt;Heltalsvariabel gissning&amp;nbsp;" style="text;html=1;resizable=0;autosize=1;align=center;verticalAlign=middle;points=[];fillColor=none;strokeColor=none;rounded=0;fontSize=14;" parent="WIyWlLk6GJQsqaUBKTNV-1" vertex="1">
          <mxGeometry x="329" y="250" width="170" height="40" as="geometry" />
        </mxCell>
        <mxCell id="Eu5xsYyu4Eo9ST4cZspL-15" value="" style="edgeStyle=orthogonalEdgeStyle;rounded=0;orthogonalLoop=1;jettySize=auto;html=1;fontSize=14;" parent="WIyWlLk6GJQsqaUBKTNV-1" source="Eu5xsYyu4Eo9ST4cZspL-10" target="Eu5xsYyu4Eo9ST4cZspL-14" edge="1">
          <mxGeometry relative="1" as="geometry" />
        </mxCell>
        <mxCell id="Eu5xsYyu4Eo9ST4cZspL-35" value="" style="edgeStyle=orthogonalEdgeStyle;rounded=0;orthogonalLoop=1;jettySize=auto;html=1;fontSize=14;" parent="WIyWlLk6GJQsqaUBKTNV-1" source="Eu5xsYyu4Eo9ST4cZspL-10" target="Eu5xsYyu4Eo9ST4cZspL-34" edge="1">
          <mxGeometry relative="1" as="geometry" />
        </mxCell>
        <mxCell id="Eu5xsYyu4Eo9ST4cZspL-10" value="" style="rhombus;whiteSpace=wrap;html=1;fontSize=14;" parent="WIyWlLk6GJQsqaUBKTNV-1" vertex="1">
          <mxGeometry x="334.5" y="350" width="159" height="110" as="geometry" />
        </mxCell>
        <mxCell id="Eu5xsYyu4Eo9ST4cZspL-13" value="Gissning lägre &lt;br&gt;än slumptal?" style="text;html=1;resizable=0;autosize=1;align=center;verticalAlign=middle;points=[];fillColor=none;strokeColor=none;rounded=0;fontSize=14;" parent="WIyWlLk6GJQsqaUBKTNV-1" vertex="1">
          <mxGeometry x="359" y="385" width="110" height="40" as="geometry" />
        </mxCell>
        <mxCell id="Eu5xsYyu4Eo9ST4cZspL-14" value="" style="shape=parallelogram;perimeter=parallelogramPerimeter;whiteSpace=wrap;html=1;fixedSize=1;fontSize=14;" parent="WIyWlLk6GJQsqaUBKTNV-1" vertex="1">
          <mxGeometry x="100" y="375" width="180" height="60" as="geometry" />
        </mxCell>
        <mxCell id="Eu5xsYyu4Eo9ST4cZspL-17" value="Utmatning:&lt;br&gt;Gissningen är för låg" style="text;html=1;resizable=0;autosize=1;align=center;verticalAlign=middle;points=[];fillColor=none;strokeColor=none;rounded=0;fontSize=14;" parent="WIyWlLk6GJQsqaUBKTNV-1" vertex="1">
          <mxGeometry x="120" y="385" width="140" height="40" as="geometry" />
        </mxCell>
        <mxCell id="Eu5xsYyu4Eo9ST4cZspL-26" value="Ja" style="text;html=1;strokeColor=none;fillColor=none;align=center;verticalAlign=middle;whiteSpace=wrap;rounded=0;fontSize=14;" parent="WIyWlLk6GJQsqaUBKTNV-1" vertex="1">
          <mxGeometry x="289" y="385" width="40" height="20" as="geometry" />
        </mxCell>
        <mxCell id="Eu5xsYyu4Eo9ST4cZspL-27" value="" style="endArrow=none;html=1;fontSize=14;exitX=0.561;exitY=0;exitDx=0;exitDy=0;exitPerimeter=0;" parent="WIyWlLk6GJQsqaUBKTNV-1" source="Eu5xsYyu4Eo9ST4cZspL-14" edge="1">
          <mxGeometry width="50" height="50" relative="1" as="geometry">
            <mxPoint x="200" y="360" as="sourcePoint" />
            <mxPoint x="200" y="170" as="targetPoint" />
          </mxGeometry>
        </mxCell>
        <mxCell id="Eu5xsYyu4Eo9ST4cZspL-28" value="" style="endArrow=classic;html=1;fontSize=14;entryX=0;entryY=0.5;entryDx=0;entryDy=0;" parent="WIyWlLk6GJQsqaUBKTNV-1" target="Eu5xsYyu4Eo9ST4cZspL-3" edge="1">
          <mxGeometry width="50" height="50" relative="1" as="geometry">
            <mxPoint x="200" y="169.5" as="sourcePoint" />
            <mxPoint x="280" y="169.5" as="targetPoint" />
          </mxGeometry>
        </mxCell>
        <mxCell id="Eu5xsYyu4Eo9ST4cZspL-44" value="" style="edgeStyle=orthogonalEdgeStyle;rounded=0;orthogonalLoop=1;jettySize=auto;html=1;fontSize=14;" parent="WIyWlLk6GJQsqaUBKTNV-1" source="Eu5xsYyu4Eo9ST4cZspL-34" target="Eu5xsYyu4Eo9ST4cZspL-38" edge="1">
          <mxGeometry relative="1" as="geometry" />
        </mxCell>
        <mxCell id="Eu5xsYyu4Eo9ST4cZspL-51" value="" style="edgeStyle=orthogonalEdgeStyle;rounded=0;orthogonalLoop=1;jettySize=auto;html=1;fontSize=14;" parent="WIyWlLk6GJQsqaUBKTNV-1" source="Eu5xsYyu4Eo9ST4cZspL-34" target="Eu5xsYyu4Eo9ST4cZspL-50" edge="1">
          <mxGeometry relative="1" as="geometry" />
        </mxCell>
        <mxCell id="Eu5xsYyu4Eo9ST4cZspL-34" value="" style="rhombus;whiteSpace=wrap;html=1;fontSize=14;" parent="WIyWlLk6GJQsqaUBKTNV-1" vertex="1">
          <mxGeometry x="337" y="510" width="154" height="115" as="geometry" />
        </mxCell>
        <mxCell id="Eu5xsYyu4Eo9ST4cZspL-36" value="Gissning högre än slumptal?" style="text;html=1;strokeColor=none;fillColor=none;align=center;verticalAlign=middle;whiteSpace=wrap;rounded=0;fontSize=14;" parent="WIyWlLk6GJQsqaUBKTNV-1" vertex="1">
          <mxGeometry x="364" y="557.5" width="100" height="20" as="geometry" />
        </mxCell>
        <mxCell id="Eu5xsYyu4Eo9ST4cZspL-37" value="Nej" style="text;html=1;strokeColor=none;fillColor=none;align=center;verticalAlign=middle;whiteSpace=wrap;rounded=0;fontSize=14;" parent="WIyWlLk6GJQsqaUBKTNV-1" vertex="1">
          <mxGeometry x="420" y="470" width="40" height="20" as="geometry" />
        </mxCell>
        <mxCell id="Eu5xsYyu4Eo9ST4cZspL-38" value="" style="shape=parallelogram;perimeter=parallelogramPerimeter;whiteSpace=wrap;html=1;fixedSize=1;fontSize=14;" parent="WIyWlLk6GJQsqaUBKTNV-1" vertex="1">
          <mxGeometry x="540" y="536.25" width="180" height="62.5" as="geometry" />
        </mxCell>
        <mxCell id="Eu5xsYyu4Eo9ST4cZspL-39" value="Utmatning:&lt;br&gt;Gissningen är för hög" style="text;html=1;strokeColor=none;fillColor=none;align=center;verticalAlign=middle;whiteSpace=wrap;rounded=0;fontSize=14;" parent="WIyWlLk6GJQsqaUBKTNV-1" vertex="1">
          <mxGeometry x="559.5" y="557.5" width="141" height="20" as="geometry" />
        </mxCell>
        <mxCell id="Eu5xsYyu4Eo9ST4cZspL-46" value="Ja" style="text;html=1;strokeColor=none;fillColor=none;align=center;verticalAlign=middle;whiteSpace=wrap;rounded=0;fontSize=14;" parent="WIyWlLk6GJQsqaUBKTNV-1" vertex="1">
          <mxGeometry x="499" y="540" width="40" height="20" as="geometry" />
        </mxCell>
        <mxCell id="Eu5xsYyu4Eo9ST4cZspL-48" value="" style="endArrow=none;html=1;fontSize=14;exitX=0.556;exitY=-0.004;exitDx=0;exitDy=0;exitPerimeter=0;" parent="WIyWlLk6GJQsqaUBKTNV-1" source="Eu5xsYyu4Eo9ST4cZspL-38" edge="1">
          <mxGeometry width="50" height="50" relative="1" as="geometry">
            <mxPoint x="640" y="510" as="sourcePoint" />
            <mxPoint x="640" y="170" as="targetPoint" />
          </mxGeometry>
        </mxCell>
        <mxCell id="Eu5xsYyu4Eo9ST4cZspL-55" value="" style="edgeStyle=orthogonalEdgeStyle;rounded=0;orthogonalLoop=1;jettySize=auto;html=1;fontSize=14;" parent="WIyWlLk6GJQsqaUBKTNV-1" source="Eu5xsYyu4Eo9ST4cZspL-50" target="Eu5xsYyu4Eo9ST4cZspL-54" edge="1">
          <mxGeometry relative="1" as="geometry" />
        </mxCell>
        <mxCell id="Eu5xsYyu4Eo9ST4cZspL-50" value="" style="shape=parallelogram;perimeter=parallelogramPerimeter;whiteSpace=wrap;html=1;fixedSize=1;fontSize=14;" parent="WIyWlLk6GJQsqaUBKTNV-1" vertex="1">
          <mxGeometry x="100" y="537.5" width="180" height="61.25" as="geometry" />
        </mxCell>
        <mxCell id="Eu5xsYyu4Eo9ST4cZspL-52" value="Nej" style="text;html=1;strokeColor=none;fillColor=none;align=center;verticalAlign=middle;whiteSpace=wrap;rounded=0;fontSize=14;" parent="WIyWlLk6GJQsqaUBKTNV-1" vertex="1">
          <mxGeometry x="289" y="540" width="40" height="20" as="geometry" />
        </mxCell>
        <mxCell id="Eu5xsYyu4Eo9ST4cZspL-53" value="Utmatning:&lt;br&gt;Gissningen är rätt!" style="text;html=1;strokeColor=none;fillColor=none;align=center;verticalAlign=middle;whiteSpace=wrap;rounded=0;fontSize=14;" parent="WIyWlLk6GJQsqaUBKTNV-1" vertex="1">
          <mxGeometry x="120" y="558.13" width="130" height="20" as="geometry" />
        </mxCell>
        <mxCell id="Eu5xsYyu4Eo9ST4cZspL-54" value="" style="rounded=1;whiteSpace=wrap;html=1;fontSize=14;" parent="WIyWlLk6GJQsqaUBKTNV-1" vertex="1">
          <mxGeometry x="130" y="650" width="120" height="60" as="geometry" />
        </mxCell>
        <mxCell id="Eu5xsYyu4Eo9ST4cZspL-56" value="&lt;font style=&quot;font-size: 17px&quot;&gt;Stopp&lt;/font&gt;" style="text;html=1;strokeColor=none;fillColor=none;align=center;verticalAlign=middle;whiteSpace=wrap;rounded=0;fontSize=14;" parent="WIyWlLk6GJQsqaUBKTNV-1" vertex="1">
          <mxGeometry x="170" y="670" width="40" height="20" as="geometry" />
        </mxCell>
        <mxCell id="cWlJ0uAkVUIcRe11qFtm-0" value="" style="endArrow=classic;html=1;entryX=1;entryY=0.5;entryDx=0;entryDy=0;" edge="1" parent="WIyWlLk6GJQsqaUBKTNV-1" target="Eu5xsYyu4Eo9ST4cZspL-3">
          <mxGeometry width="50" height="50" relative="1" as="geometry">
            <mxPoint x="640" y="169.5" as="sourcePoint" />
            <mxPoint x="550" y="169.5" as="targetPoint" />
            <Array as="points" />
          </mxGeometry>
        </mxCell>
      </root>
    </mxGraphModel>
  </diagram>
</mxfile>
